<?xml version="1.0" encoding="UTF-8" standalone="no"?>
<svg
   version="1.1"
   viewBox="-5.0 -10.0 110.0 135.0"
   id="svg6"
   sodipodi:docname="noun-fingerprint-7363800.svg"
   inkscape:version="1.3.1 (9b9bdc1480, 2023-11-25, custom)"
   xmlns:inkscape="http://www.inkscape.org/namespaces/inkscape"
   xmlns:sodipodi="http://sodipodi.sourceforge.net/DTD/sodipodi-0.dtd"
   xmlns="http://www.w3.org/2000/svg"
   xmlns:svg="http://www.w3.org/2000/svg">
  <defs
     id="defs6" />
  <sodipodi:namedview
     id="namedview6"
     pagecolor="#ffffff"
     bordercolor="#000000"
     borderopacity="0.25"
     inkscape:showpageshadow="2"
     inkscape:pageopacity="0.0"
     inkscape:pagecheckerboard="0"
     inkscape:deskcolor="#d1d1d1"
     showgrid="false"
     inkscape:zoom="5.8518519"
     inkscape:cx="55.025316"
     inkscape:cy="67.5"
     inkscape:window-width="1910"
     inkscape:window-height="988"
     inkscape:window-x="5"
     inkscape:window-y="30"
     inkscape:window-maximized="1"
     inkscape:current-layer="svg6" />
  <path
     d="m77.078 54.129c-0.42188 10.371-3.6289 20.852-9.6914 30.371-0.82031 1.2891-2.9492 2.5391-4.4102 2.4688-2.4609-0.12109-2.8398-2.6289-0.96094-5.7383 5.5781-9.2305 8.6406-19.191 8.7383-30.012 0.12109-12.121-8.0195-21.02-19.891-21.762-11-0.69141-20.301 7.5898-21.559 19.23-0.26172 2.3984-0.55859 4.9805-3.75 4.5508-3.0508-0.41016-2.9609-3.0195-2.7188-5.3906 1.5703-15.129 14.531-26.059 29.441-24.809 15.18 1.2695 25.941 14.32 24.789 31.09z"
     id="path1"
     style="fill:#ff9955" />
  <path
     d="m64.531 52.172c-0.28125 7.1016-2.0703 14.578-5.5508 21.629-1.0391 2.1094-2.4414 3.8594-5.0312 2.4688-2.3789-1.2812-1.4102-3.2188-0.82031-5.2891 1.8086-6.4219 3.7617-12.859 4.7891-19.43 0.83984-5.3086-2.8398-9.2305-7.5781-9.4414-4.7109-0.21094-8.25 3.3281-8.4609 8.7812-0.23828 6.0117-1.9492 11.48-5.3516 16.43-1.3398 1.9492-2.8711 4.0391-5.5195 2.1602-2.3984-1.6992-0.85937-3.5781 0-5.6484 1.7812-4.2695 3.8516-8.6484 4.3594-13.16 1.0391-9.2188 6.75-15.25 15.398-14.891 8.0898 0.32812 13.859 6.8906 13.77 16.398z"
     id="path2"
     style="fill:#5aa02c" />
  <path
     d="m10.109 47.801c0.48828-12.66 6.9102-24.219 19.809-32.059 2.0508-1.2383 4.1406-2 5.5586 0.53906 1.2812 2.2891-0.28906 3.6797-2.1797 4.8984-18.449 11.941-22.219 32.879-9.0703 50.379 1.4219 1.8906 2.6094 3.7695 0.30078 5.5898-2.3711 1.8594-3.9688 0.019531-5.4219-1.6719-5.6992-6.6484-8.9883-15.941-8.9805-27.691z"
     id="path3"
     style="fill:#2a7fff" />
  <path
     d="m89.828 49.828c-0.94141 1.2617-5.7188 1.5117-6.1094 0.23047-0.67969-2.2695-0.44141-4.8086-0.98828-7.1289-2.4609-10.371-8.5117-17.98-17.988-22.852-0.55859-0.28906-1.4102-0.39062-1.6719-0.83984-0.80078-1.3594-2.1719-3.0586-1.8594-4.25 0.55859-2.2109 2.6484-2.3398 4.6797-1.4219 11.301 5.1016 18.859 13.539 22.41 25.422 0.87109 2.8984 1.8398 10.441 1.5391 10.84z"
     id="path4"
     style="fill:#ff5555" />
  <path
     d="m54.031 53.172c-1.1602 12.871-6.8984 23.328-17.371 31.18-1.9414 1.4492-4.0781 2.8281-5.8984 0.19922-1.6289-2.3516 0.058593-3.8398 1.9805-5.2617 8.9805-6.6602 13.93-15.621 14.91-26.762 0.21094-2.3516-0.30859-5.3984 3.2891-5.2812 3.8906 0.12891 2.9102 3.3711 3.0898 5.9297z"
     id="path5"
     style="fill:#373748" />
</svg>
